<svg width="530" height="153" viewBox="0 0 530 153" fill="none" xmlns="http://www.w3.org/2000/svg">
<g filter="url(#filter0_d_1_13)">
<path d="M354.148 51.7168V74.6543L362.759 51.7188L354.148 51.7168ZM225.18 27.877H230.469V4.9063L240.337 4.9082V0.002H229.553L226.098 0H215.311V4.9082H225.18V27.877ZM247.37 1.711V28.0586H252.662V15.541L266.707 17.0196V33.709L268.133 32.7657C269.108 32.0712 269.958 31.2166 270.648 30.2383C271.306 29.3624 271.764 28.3531 271.99 27.2813L271.996 27.2364L271.998 27.2168L272.002 27.2032V0.1856H266.711V12.084L252.661 10.6094L252.662 0.1836H244.989C245.93 0.414226 246.768 0.95161 247.37 1.711ZM88.1022 129.398L95.6276 118.264L95.5944 51.7168L75.5495 51.709C76.5792 51.8534 77.5639 52.2251 78.4323 52.7969C79.8138 53.5164 80.9226 54.6671 81.5905 56.0742V111.141L76.0417 108.709L75.0768 108.277C75.0202 108.254 74.9811 108.236 74.8756 108.197L72.8171 107.295C69.2878 105.631 62.2253 101.344 59.612 94.8496C58.1776 91.4413 57.2536 87.84 56.8698 84.1621L56.8571 51.7149H42.862V51.7188H42.8112V80.9278C42.8014 81.2676 42.7917 81.7403 42.7917 82.2676C42.7917 82.7168 42.7975 83.2051 42.8151 83.7442V111.076L37.2526 108.641L36.1686 108.154L36.1667 108.17L34.0319 107.23C30.5026 105.566 23.4362 101.277 20.8239 94.7832C19.3906 91.3738 18.4663 87.7721 18.0807 84.0938L18.07 51.6465H4.07681L4.04951 80.2871C4.02411 80.7696 4.00261 81.4356 4.00261 82.2032C3.92556 88.9914 5.55412 95.6904 8.73891 101.686C13.4383 109.892 20.7814 116.263 29.569 119.758L49.3171 129.329L56.82 118.213V112.924L57.4479 113.428C60.7456 116.093 64.4225 118.251 68.3571 119.83L88.1022 129.398ZM297.33 23.3574H294.279C293.478 23.2461 288.736 22.0586 287.394 19.5098C286.585 18.1401 286.045 16.6288 285.802 15.0567H293.718V10.1485H285.814V4.25H291.556L297.23 4.252V0.3692L278.047 0.3711C278.992 0.605329 279.833 1.14832 280.435 1.9141C280.445 1.9239 280.451 1.9317 280.461 1.9414V13.9551H280.451L280.461 14.1035V14.2949H280.468L280.509 15.0449C280.687 17.7774 281.611 20.4088 283.181 22.6524C286.375 26.916 291.513 27.9551 293.029 28.1992L293.398 28.2598L293.429 28.2637L293.443 28.2657H297.33V23.3574ZM131.444 128.941V51.7149L111.085 51.709C112.491 51.9632 113.811 52.5683 114.922 53.4683C116.032 54.3683 116.898 55.534 117.438 56.8574V117.959L131.444 128.941ZM425.883 116.576C423.554 116.4 410.33 112.988 406.377 105.635H406.373C404.06 101.547 402.538 97.0596 401.886 92.4082L401.824 91.9746H423.984V79.0313H401.912V62.6016L418.34 62.6035L433.806 62.6055V51.7188L381.166 51.709C382.708 51.9819 384.143 52.6845 385.304 53.7363C386.465 54.788 387.306 56.146 387.73 57.6543V89.6524H387.728L387.73 89.6973V89.8496H387.738L387.863 92.2949C388.129 95.918 389.283 105.256 395.252 113.34C404.066 125.11 418.314 128.007 422.513 128.685C422.513 128.685 423.281 128.814 423.537 128.851L423.623 128.864H434.08V116.58C434.08 116.58 427.927 116.732 425.883 116.576ZM524.484 125.646C519.898 122.334 515.497 118.774 511.301 114.982L510.791 114.529C506.373 110.566 502.25 106.561 498.535 102.951C496.461 100.945 493.886 98.0469 491.406 95.3086C489.806 93.543 488.258 91.8535 486.843 90.4629L486.547 90.1778L494.291 83.2754C497.02 81.2399 499.445 78.8249 501.492 76.1035C503.951 72.4981 504.662 67.8887 504.685 63.127C504.707 58.5703 504.722 54.2032 504.722 54.1875L504.726 51.7246L446.252 51.709C447.281 51.854 448.265 52.2256 449.133 52.7969C450.421 53.4691 451.477 54.5156 452.16 55.7989V83.0391H452.154V96.3574L452.16 128.8H466.164V95.9707H472.656L472.74 96.0157C475.214 97.6351 477.458 99.5818 479.41 101.803C482.373 104.877 485.75 108.652 489.422 112.174C493.976 116.547 499.082 121.439 504.623 126.134C510.156 130.933 516.133 135.196 522.472 138.864L525.718 140.673V126.642L524.484 125.646ZM474.976 82.9297L474.865 83.0371H470.504V83.0332H466.164V62.7032L475.129 62.7129L478.162 62.7149L484.295 62.7207L490.818 62.7266V65.8106C490.806 65.9055 490.787 65.9995 490.761 66.0918C490.646 66.54 490.496 66.9787 490.314 67.4043C490.258 67.5391 490.193 67.6856 490.129 67.8106C490.072 67.9356 490.011 68.0215 489.982 68.0821C489.873 68.2949 489.763 68.5137 489.613 68.752C489.334 69.1914 487.697 70.8574 486.138 72.4278L474.976 82.9297ZM190.16 58.5762L184.751 52.2071L184.47 51.7188H171.181L185.343 77.9785V64.6504H212.905V51.7188H187.538L190.16 58.5762ZM186.586 133.95C184.951 132.31 183.203 130.427 183.219 129.894C183.25 128.894 180.417 123.115 180.417 123.115L183.562 126.708L184.784 128.802H185.343V95.1348L169.81 51.7188L143.768 51.7168V64.6524H171.335L171.333 128.802H180.346L184.449 135.2L190.16 143.241L186.586 133.95ZM322.701 88.0684L323.703 81.793L314.14 80.7871V51.7149L293.871 51.709C295.235 51.956 296.518 52.5317 297.609 53.3862C298.7 54.2408 299.566 55.3485 300.133 56.6133V128.8H302.4L303.568 127.011L307.31 118.266L305.974 128.282L305.888 128.587L314.142 120.336V93.7969L345.717 97.1153L350.414 84.6016L326.052 82.041L322.701 88.0684ZM354.146 119.281V144.247L357.515 142.017C360.203 140.101 362.549 137.747 364.455 135.052C366.254 132.656 367.507 129.897 368.129 126.966L368.146 126.833L368.15 126.798L368.152 126.794V51.7188H363.545L351.681 97.7422L354.146 98V112.781L360.347 101.049L357.433 111.416L354.146 119.281ZM262.552 64.6543H281.513V51.7168L261.339 51.7149L262.464 60.2774L262.552 64.6543ZM278.804 121.699L279.492 118.205L279.412 115.926H268.468C266.213 115.793 263.99 115.321 261.875 114.525L264.097 128.665C264.134 128.671 264.178 128.679 264.214 128.685L266.117 128.851L278.689 128.87L279.304 128.866H284.865V115.928H282.365L278.804 121.699ZM248.962 104.98C244.737 97.5528 244.37 91.8418 244.328 90.8789V73.1944C244.327 78.4512 244.325 85.6939 244.316 85.6446L244.319 64.6524L258.063 64.6543L258.481 61.0215L259.511 51.7149L224.344 51.709C225.373 51.8543 226.357 52.2259 227.224 52.7969L227.237 52.8028C228.176 53.4721 229.042 54.2387 229.82 55.0899C230.005 55.3588 230.171 55.6407 230.315 55.9336V83.1055L230.594 93.8555L230.614 94.0235C231.077 98.27 232.175 102.423 233.87 106.344C233.87 106.344 235.301 109.344 235.478 109.68C236.123 110.809 236.839 111.896 237.62 112.936L240.429 122.275L245.463 129.456L243.502 120.844C243.426 120.235 243.317 119.63 243.176 119.033C242.447 116.338 241.844 113.744 241.844 113.744L243.106 114.873L241.844 102.791L246.64 121.666C249.782 123.8 253.189 125.513 256.775 126.761L258.64 118.135L259.003 119.039L259.939 113.787C255.657 111.994 251.152 109.072 248.962 104.98ZM510.64 40.334H511.379L512.492 42.1641H513.209L512.004 40.3047C512.2 40.2843 512.391 40.2252 512.564 40.1309C512.73 40.05 512.866 39.9178 512.951 39.7539C513.056 39.5692 513.107 39.3588 513.099 39.1465C513.117 38.9759 513.092 38.8037 513.028 38.6447C512.963 38.4858 512.861 38.345 512.73 38.2344C512.401 38.0132 512.006 37.91 511.611 37.9414H510.008V42.1641H510.64V40.334ZM510.64 38.4844H511.506C512.125 38.4922 512.427 38.6953 512.427 39.1094C512.427 39.4043 512.345 39.5879 512.172 39.6699C511.928 39.7646 511.667 39.8059 511.406 39.791H510.64V38.4844ZM508.552 42.9004C508.927 43.2609 509.37 43.5431 509.855 43.7305C510.345 43.9313 510.869 44.0335 511.398 44.0313C511.922 44.0317 512.442 43.9337 512.929 43.7422C513.412 43.5494 513.852 43.2633 514.224 42.9004C514.597 42.5375 514.895 42.1057 515.103 41.6289C515.316 41.1286 515.426 40.5905 515.426 40.0469C515.426 39.5033 515.316 38.9652 515.103 38.4649C514.905 37.9871 514.607 37.557 514.23 37.2032C513.468 36.4742 512.453 36.0688 511.398 36.0723C510.867 36.0782 510.341 36.1788 509.845 36.3692C509.368 36.5675 508.93 36.85 508.552 37.2032C508.179 37.5652 507.88 37.9963 507.672 38.4727C507.455 38.969 507.347 39.5056 507.353 40.0469C507.35 40.5788 507.455 41.1059 507.661 41.5963C507.867 42.0867 508.17 42.5303 508.552 42.9004ZM508.394 38.7461C508.551 38.3503 508.79 37.9918 509.093 37.6934C509.388 37.3916 509.738 37.1496 510.125 36.9805C510.53 36.8201 510.962 36.7386 511.398 36.7403C511.831 36.7384 512.26 36.82 512.662 36.9805C513.044 37.1464 513.39 37.3852 513.681 37.6836C513.977 37.9859 514.212 38.3428 514.373 38.7344C514.535 39.1528 514.616 39.5982 514.613 40.0469C514.621 40.6408 514.475 41.2266 514.191 41.7481C513.913 42.2423 513.51 42.654 513.021 42.9414C512.527 43.2247 511.967 43.373 511.398 43.3711C510.822 43.3742 510.256 43.226 509.756 42.9414C509.27 42.6498 508.866 42.2391 508.584 41.7481C508.293 41.229 508.144 40.642 508.154 40.0469C508.153 39.6021 508.234 39.161 508.394 38.7461Z" fill="url(#paint0_linear_1_13)"/>
</g>
<defs>
<filter id="filter0_d_1_13" x="0" y="0" width="529.718" height="152.247" filterUnits="userSpaceOnUse" color-interpolation-filters="sRGB">
<feFlood flood-opacity="0" result="BackgroundImageFix"/>
<feColorMatrix in="SourceAlpha" type="matrix" values="0 0 0 0 0 0 0 0 0 0 0 0 0 0 0 0 0 0 127 0" result="hardAlpha"/>
<feOffset dy="4"/>
<feGaussianBlur stdDeviation="2"/>
<feComposite in2="hardAlpha" operator="out"/>
<feColorMatrix type="matrix" values="0 0 0 0 0 0 0 0 0 0 0 0 0 0 0 0 0 0 0.45 0"/>
<feBlend mode="normal" in2="BackgroundImageFix" result="effect1_dropShadow_1_13"/>
<feBlend mode="normal" in="SourceGraphic" in2="effect1_dropShadow_1_13" result="shape"/>
</filter>
<linearGradient id="paint0_linear_1_13" x1="264.859" y1="0" x2="264.859" y2="144.247" gradientUnits="userSpaceOnUse">
<stop stop-color="#DBE3E5"/>
<stop offset="1" stop-color="#99ABAF"/>
</linearGradient>
</defs>
</svg>
