<svg width="48" height="48" viewBox="0 0 48 48" fill="none" xmlns="http://www.w3.org/2000/svg">
<path d="M17.0516 10.131L4.91456 17.214C3.6023 17.9798 3.58953 19.8715 4.89134 20.655L17.3837 28.1732C18.7538 28.9977 20.3292 27.4714 19.5484 26.0759C18.9669 25.0365 19.7181 23.7553 20.9091 23.7553H30.4167C31.5212 23.7553 32.4167 24.6507 32.4167 25.7553V34.0426C32.4167 35.1471 31.5212 36.0426 30.4167 36.0426H26.0833C24.9788 36.0426 24.0833 36.938 24.0833 38.0426V40C24.0833 41.1046 24.9788 42 26.0833 42H40C41.1046 42 42 41.1046 42 40V17.1915C42 16.0869 41.1046 15.1915 40 15.1915H21.2285C19.8651 15.1915 18.9822 13.7519 19.6004 12.5367C20.4266 10.9124 18.6256 9.21242 17.0516 10.131Z" fill="black"/>
</svg>
