<svg width="48" height="48" viewBox="0 0 48 48" fill="none" xmlns="http://www.w3.org/2000/svg">
<path fill-rule="evenodd" clip-rule="evenodd" d="M7.05296 7.05295C5.64902 8.45689 5.64902 10.7331 7.05296 12.1371L18.9159 24L7.05296 35.8629C5.64903 37.2668 5.64903 39.543 7.05296 40.947C8.4569 42.3509 10.7331 42.3509 12.1371 40.947L24 29.0841L35.8629 40.947C37.2668 42.3509 39.543 42.3509 40.947 40.947C42.3509 39.543 42.3509 37.2668 40.947 35.8629L29.0841 24L40.947 12.1371C42.3509 10.7331 42.3509 8.45689 40.947 7.05296C39.543 5.64902 37.2668 5.64902 35.8629 7.05296L24 18.9159L12.1371 7.05295C10.7331 5.64902 8.45689 5.64902 7.05296 7.05295Z" fill="black"/>
</svg>
