<svg width="48" height="48" viewBox="0 0 48 48" fill="none" xmlns="http://www.w3.org/2000/svg">
<path d="M24 42.5142C25.8936 42.5142 27.4286 40.9792 27.4286 39.0857C27.4286 37.1921 25.8936 35.6571 24 35.6571C22.1065 35.6571 20.5714 37.1921 20.5714 39.0857C20.5714 40.9792 22.1065 42.5142 24 42.5142Z" fill="black"/>
<path d="M26.2991 31.5446C26.2991 32.6403 24.2554 32.9143 23.2337 32.9143C20.1681 32.9143 20.9345 29.4901 20.9345 27.4356C20.9345 25.3811 24 22.6417 26.2991 21.9569C28.5983 21.272 30.8975 19.2175 30.8975 16.4781C30.8975 13.7388 29.3647 11.6842 23.2337 11.6842C18.3287 11.6842 17.1025 15.3367 17.1025 17.163C17.1025 17.8478 16.4894 19.2175 14.037 19.2175C11.5845 19.2175 10.9714 17.8478 10.9714 17.163C10.9714 13.5104 13.4239 6.06849 23.2337 5.52062C35.4958 4.83578 37.0286 14.4236 37.0286 17.163C37.0286 19.9023 33.1967 24.0113 29.3647 26.0659C25.5328 28.1204 26.2991 30.1749 26.2991 31.5446Z" fill="black"/>
</svg>
