<svg width="180" height="180" viewBox="0 0 180 180" fill="none" xmlns="http://www.w3.org/2000/svg">
<path d="M18 116.5L22 124L23.5 127.5H15.5C20 131.667 29.5 140.9 31.5 144.5C34 149 39 157.5 42 159C45 160.5 54 165.5 54.5 169.5C54.9 172.7 55.6667 174.5 56 175C57.3333 172.333 60.4 166.7 62 165.5C63.6 164.3 64.6667 162 65 161C59 155.5 46.9 144.1 46.5 142.5C46 140.5 62 153.5 66.5 154C70.1 154.4 72.6667 154.833 73.5 155C70.5 153.5 64 149.7 62 146.5C59.5 142.5 53.5 135 50 134C46.5 133 40.3941 133.546 37 131C35 129.5 32.3333 125.667 31.5 124.5" stroke="#A27D3B" stroke-width="3"/>
<path fill-rule="evenodd" clip-rule="evenodd" d="M97.3481 161.654C136.427 157.954 167 125.047 167 85C167 42.4741 132.526 8 90 8C47.4741 8 13 42.4741 13 85C13 96.6712 15.5967 107.736 20.2438 117.648L17.392 118.633C12.6479 108.408 10 97.0132 10 85C10 40.8172 45.8172 5 90 5C134.183 5 170 40.8172 170 85C170 126.608 138.235 160.798 97.6325 164.641L97.3481 161.654Z" fill="#A27D3B"/>
<path fill-rule="evenodd" clip-rule="evenodd" d="M121.506 146.403C143.77 134.956 159 111.757 159 85C159 46.8924 128.108 16 90 16C51.8924 16 21 46.8924 21 85C21 100.867 26.3555 115.482 35.3574 127.138L33.3731 129.473C23.7438 117.229 18 101.785 18 85C18 45.2355 50.2355 13 90 13C129.765 13 162 45.2355 162 85C162 112.982 146.038 137.235 122.723 149.152L121.506 146.403Z" fill="#A27D3B"/>
<path d="M99 163L78.5 164.5C90.5 161.333 119.5 149.4 123.5 147" stroke="#A27D3B" stroke-width="3"/>
<path d="M43 152C44.6569 152 46 150.657 46 149C46 147.343 44.6569 146 43 146C41.3431 146 40 147.343 40 149C40 150.657 41.3431 152 43 152Z" stroke="#A27D3B" stroke-width="2"/>
</svg>
