<svg width="48" height="48" viewBox="0 0 48 48" fill="none" xmlns="http://www.w3.org/2000/svg">
<path d="M26.5574 16.4122L35.4887 18.2333C36.002 18.3344 37.0286 18.1725 37.0286 16.7157V9.43139C36.9259 8.92553 36.4742 7.85315 35.4887 7.61034C34.5032 7.36752 27.6867 6.09275 24.4016 5.48572C23.8883 5.48572 22.8617 5.78923 22.8617 7.00327V31.5878C20.6033 30.7784 15.3471 30.0095 12.3906 33.4089C9.43399 36.8083 11.7746 39.6815 13.3145 40.6932C14.1357 41.3002 16.3326 42.5143 18.5501 42.5143C21.3218 42.5143 25.0175 40.3897 25.9415 38.5686C26.8654 36.7476 26.5574 33.4089 26.5574 31.5878V16.4122Z" fill="black"/>
</svg>
